# xmcd CD database file
# Copyright (C) 1993-1998 Ti Kan
#
# Track frame offsets:
#	182
#	13452
#	25040
#	38260
#	50972
#	63097
#	77087
#	90512
#	103435
#	116385
#	127752
#	140687
#	153385
#	165825
#	180065
#	192625
#	205265
#
# Disc length: 2899 seconds
#
# Revision: 1
# Processed by: cddbd v1.4b41PL1 Copyright (c) Steve Scherf et al.
# Submitted via: CDValet v3.31 - Copyright (c) 1997 Greg Leichner
#
DISCID=d60b5111
DTITLE=Memphis Slim - Life Is Like That
DYEAR=1900
DGENRE=
TTITLE0=Life Is Like That
TTITLE1=Nobody Loves Me
TTITLE2=Sometimes I Feel Like A Motherless Child
TTITLE3=Pacemaker Boogie
TTITLE4=Harlem Bound
TTITLE5=Darling, I Miss You
TTITLE6=Lend Me Your Love
TTITLE7=Cheatin' Around
TTITLE8=A Letter Home
TTITLE9=Now I Got The Blues
TTITLE10=Grinder Man Blues
TTITLE11=Don't Ration My Love
TTITLE12=Slim's Boogie
TTITLE13=Little Mary
TTITLE14=Mistake In Life
TTITLE15=Messin' Around With The Blues
TTITLE16=Midnight Jump
EXTD=
EXTT0=
EXTT1=
EXTT2=
EXTT3=
EXTT4=
EXTT5=
EXTT6=
EXTT7=
EXTT8=
EXTT9=
EXTT10=
EXTT11=
EXTT12=
EXTT13=
EXTT14=
EXTT15=
EXTT16=
PLAYORDER=
